<svg aria-hidden="true" style="position: absolute; width: 0; height: 0; overflow: hidden;" version="1.1" xmlns="http://www.w3.org/2000/svg" xmlns:xlink="http://www.w3.org/1999/xlink">
<defs>
<symbol id="icon-burger" viewBox="0 0 32 32">
<path fill="#fff" style="fill: var(--color1, #fff)" d="M26.733 14h-21.466c-0.7 0-1.267 0.425-1.267 0.95v0.1c0 0.525 0.567 0.95 1.267 0.95h21.466c0.7 0 1.267-0.425 1.267-0.95v-0.1c0-0.525-0.567-0.95-1.267-0.95zM26.733 20h-21.466c-0.7 0-1.267 0.425-1.267 0.95v0.1c0 0.525 0.567 0.95 1.267 0.95h21.466c0.7 0 1.267-0.425 1.267-0.95v-0.1c0-0.525-0.567-0.95-1.267-0.95zM26.733 8h-21.466c-0.7 0-1.267 0.425-1.267 0.95v0.1c0 0.525 0.567 0.95 1.267 0.95h21.466c0.7 0 1.267-0.425 1.267-0.95v-0.1c0-0.525-0.567-0.95-1.267-0.95z"></path>
</symbol>
<symbol id="icon-close" viewBox="0 0 32 32">
<path fill="#fcfcfc" style="fill: var(--color2, #fcfcfc)" d="M23.884 6.706l-7.884 7.884-7.884-7.884c-0.177-0.162-0.414-0.262-0.674-0.262-0.551 0-0.998 0.447-0.998 0.998 0 0.26 0.099 0.497 0.262 0.674l-0.001-0.001 7.88 7.884-7.882 7.882c-0.181 0.181-0.293 0.43-0.293 0.706 0 0.551 0.447 0.998 0.998 0.998 0.275 0 0.524-0.111 0.705-0.292v0l7.886-7.882 7.884 7.884c0.177 0.162 0.414 0.262 0.674 0.262 0.551 0 0.998-0.447 0.998-0.998 0-0.26-0.099-0.497-0.262-0.674l0.001 0.001-7.884-7.884 7.884-7.886c0.181-0.181 0.293-0.43 0.293-0.706 0-0.551-0.447-0.998-0.998-0.998-0.275 0-0.524 0.111-0.705 0.292v0 0.002z"></path>
</symbol>
<symbol id="icon-vector" viewBox="0 0 22 32">
<path d="M3.104 0.726c-0.434 0.434-0.702 1.034-0.702 1.696s0.268 1.262 0.702 1.696l11.878 11.882-11.878 11.882c-0.399 0.427-0.644 1.003-0.644 1.636 0 1.325 1.075 2.4 2.4 2.4 0.633 0 1.209-0.245 1.638-0.645l-0.001 0.001 13.578-13.578c0.434-0.434 0.702-1.034 0.702-1.696s-0.268-1.262-0.702-1.696l-13.578-13.578c-0.434-0.434-1.034-0.702-1.696-0.702s-1.262 0.268-1.696 0.702l0-0z"></path>
</symbol>

</defs>
</svg>
